<?xml version="1.0" standalone="no"?>
<!DOCTYPE svg PUBLIC "-//W3C//DTD SVG 20010904//EN"
 "http://www.w3.org/TR/2001/REC-SVG-20010904/DTD/svg10.dtd">
<svg version="1.0" xmlns="http://www.w3.org/2000/svg"
 width="1280.000000pt" height="640.000000pt" viewBox="0 0 1280.000000 640.000000"
 preserveAspectRatio="xMidYMid meet">
<g transform="translate(0.000000,640.000000) scale(0.100000,-0.100000)"
fill="#000000" stroke="none">
<path d="M2807 6068 l6 -61 -41 6 c-23 3 -42 2 -42 -2 0 -4 16 -23 36 -42 89
-86 242 -322 270 -416 13 -44 13 -57 2 -80 -19 -41 -95 -75 -171 -78 -81 -3
-77 -2 -77 -29 0 -33 55 -71 265 -186 306 -167 484 -302 527 -398 18 -40 18
-45 3 -68 -9 -14 -28 -30 -43 -36 -29 -11 -228 -6 -496 12 -222 15 -418 -6
-476 -50 -49 -37 -19 -43 252 -52 364 -12 635 -42 790 -88 79 -24 98 -45 157
-171 56 -121 101 -270 101 -332 0 -73 -37 -142 -110 -211 -113 -104 -338 -159
-700 -173 -281 -10 -415 14 -680 124 -181 75 -356 164 -408 209 -92 79 -116
160 -132 449 -15 271 -18 285 -72 285 -25 0 -32 -6 -49 -45 -16 -37 -21 -76
-26 -208 -3 -89 -10 -172 -14 -184 -18 -50 -79 -23 -171 76 -83 87 -149 184
-233 342 -91 171 -128 206 -170 159 -26 -29 -16 -86 40 -215 51 -119 64 -177
46 -199 -7 -8 -58 -31 -114 -51 -153 -56 -287 -128 -287 -154 0 -4 26 -38 59
-75 67 -76 90 -120 74 -145 -41 -65 -514 -231 -660 -231 -48 0 -83 -10 -83
-22 0 -6 14 -8 33 -5 424 73 608 129 717 218 40 34 70 38 70 10 0 -65 -312
-211 -610 -286 -52 -13 -151 -33 -220 -45 -68 -11 -129 -25 -134 -30 -14 -14
5 -13 135 10 202 36 351 71 474 112 156 52 212 78 296 133 83 56 137 116 145
164 3 20 14 47 23 61 9 14 21 40 26 59 16 53 55 76 128 76 77 0 114 -21 259
-141 234 -195 500 -345 872 -493 316 -127 640 -294 742 -384 69 -62 109 -127
99 -165 -23 -92 -119 -147 -298 -171 -275 -38 -1611 40 -1809 105 -44 14 -155
84 -345 217 -130 91 -192 112 -257 87 -56 -21 -29 -54 160 -205 162 -129 274
-235 274 -258 0 -22 -46 -54 -190 -132 -172 -92 -254 -148 -331 -225 -68 -67
-88 -107 -74 -151 11 -32 41 -21 218 80 357 206 601 307 795 331 138 16 145 1
73 -140 -66 -129 -74 -181 -32 -195 46 -14 127 50 202 162 67 98 111 141 155
149 56 10 430 -2 604 -21 474 -50 679 -103 725 -187 18 -33 18 -41 7 -84 -24
-88 -120 -222 -220 -306 -127 -107 -901 -418 -1040 -418 -27 0 -101 9 -163 20
-209 37 -262 43 -292 31 -24 -9 -28 -16 -25 -43 4 -45 39 -62 225 -109 216
-54 253 -72 253 -123 0 -9 -42 -60 -93 -114 -130 -138 -165 -223 -117 -285 43
-54 86 -44 124 31 43 85 101 147 273 292 181 153 305 234 505 330 259 124 293
105 202 -112 -81 -190 -161 -293 -334 -426 -167 -129 -198 -171 -148 -206 51
-36 90 -21 278 108 68 47 130 86 136 86 6 0 37 -39 69 -88 32 -48 85 -115 118
-149 50 -53 66 -63 94 -63 31 0 33 2 33 38 0 27 -21 80 -77 191 -74 146 -78
158 -78 220 0 61 5 75 63 191 35 69 84 172 109 230 58 137 115 242 215 392
174 265 215 298 366 298 139 0 240 -48 280 -133 45 -96 110 -373 119 -508 4
-62 1 -107 -11 -162 -16 -72 -30 -103 -172 -377 -46 -89 -52 -122 -25 -149 23
-23 70 -28 101 -11 30 16 102 123 177 265 50 94 75 131 89 133 25 4 156 -83
224 -147 69 -66 78 -102 56 -239 -10 -59 -31 -170 -48 -247 -31 -141 -42 -265
-23 -271 6 -2 34 33 64 77 53 77 55 82 67 183 21 170 68 246 187 302 54 25 88
24 120 -4 22 -20 22 -31 -5 -59 -22 -24 -22 -24 -3 -59 10 -20 32 -45 47 -56
25 -17 33 -18 58 -8 18 7 44 10 67 5 l37 -7 -52 47 c-60 54 -76 101 -48 148 9
16 16 35 16 42 0 28 -95 95 -232 165 -335 171 -415 258 -492 530 -36 128 -79
313 -91 386 -13 81 47 160 179 236 39 23 112 64 161 93 50 29 109 62 133 74
24 12 70 44 104 71 89 72 301 180 382 195 39 8 78 -4 136 -42 51 -33 131 -41
520 -53 501 -15 711 -31 1050 -81 263 -38 446 -59 523 -59 57 0 90 -5 122 -20
87 -40 415 -106 785 -160 118 -17 242 -35 275 -41 118 -20 401 -92 433 -110
19 -11 52 -19 78 -19 25 0 55 -5 67 -12 12 -7 49 -13 82 -14 33 -1 131 -16
217 -34 150 -31 157 -31 191 -15 34 16 40 15 137 -6 131 -30 255 -99 312 -174
63 -83 134 -240 201 -445 72 -218 114 -325 186 -468 72 -144 114 -258 166
-447 52 -192 99 -302 153 -358 56 -59 161 -106 191 -88 21 14 7 49 -59 147
-92 136 -145 293 -121 357 24 62 89 23 271 -163 134 -138 184 -168 293 -177
82 -7 83 -15 -17 107 -94 114 -236 254 -382 376 -238 201 -245 212 -429 724
-57 157 -119 327 -139 378 -20 52 -36 100 -36 108 0 31 49 11 220 -90 91 -55
197 -108 490 -249 233 -112 467 -284 580 -425 40 -51 56 -82 81 -165 51 -167
102 -260 189 -348 85 -85 217 -177 312 -216 65 -27 183 -41 233 -29 26 7 26 8
10 26 -9 10 -85 67 -169 126 -172 123 -262 207 -299 280 -28 55 -51 154 -45
199 4 42 34 43 204 6 195 -43 255 -51 367 -51 116 0 186 21 153 45 -27 20
-203 77 -406 130 -297 79 -378 118 -627 303 -207 154 -374 257 -588 362 -318
156 -665 381 -665 431 0 23 58 54 279 144 90 37 219 91 285 120 144 64 202 75
396 75 321 0 1398 -55 1457 -75 6 -2 28 1 48 6 l37 11 -23 25 c-33 35 -186
107 -294 138 -157 45 -252 55 -600 65 -404 11 -485 24 -485 76 0 44 78 83 364
180 298 101 511 214 652 347 70 65 94 101 94 140 0 56 -63 38 -280 -84 -225
-125 -364 -187 -620 -274 -198 -68 -305 -115 -455 -199 -140 -78 -684 -352
-768 -386 -41 -17 -60 -21 -68 -13 -13 13 0 40 75 156 58 88 105 189 130 277
50 177 70 232 106 295 86 146 200 264 445 461 83 67 168 141 190 165 l40 44
-53 3 c-120 7 -291 -81 -485 -249 -104 -91 -158 -123 -189 -114 -34 12 -61 87
-56 164 4 82 46 174 145 322 80 119 123 199 123 229 0 30 -27 36 -67 15 -71
-38 -282 -285 -349 -408 -49 -91 -54 -130 -64 -487 -9 -352 -15 -401 -61 -493
-52 -103 -200 -268 -294 -330 -27 -17 -100 -40 -228 -71 -103 -25 -195 -46
-205 -46 -9 0 -62 11 -117 25 -188 46 -585 105 -708 105 -50 0 -68 12 -109 73
-26 37 -104 51 -253 44 -95 -4 -149 0 -260 18 -190 31 -340 47 -525 55 -132 6
-166 11 -229 34 -203 73 -789 141 -973 112 -49 -7 -65 -6 -106 12 -71 31 -186
42 -587 57 l-360 13 -88 -59 c-48 -32 -94 -59 -103 -59 -9 0 -48 11 -87 24
-40 14 -98 32 -130 41 -73 20 -106 52 -252 245 -61 80 -137 172 -171 205 -52
51 -69 77 -113 177 -29 65 -63 146 -76 181 -74 198 -73 415 5 820 52 275 50
329 -14 313 -45 -11 -61 -59 -165 -495 -43 -179 -68 -244 -97 -255 -26 -10
-68 29 -79 74 -4 14 -64 144 -133 290 -148 309 -150 321 -91 411 54 81 129
150 281 256 152 106 173 125 165 148 -11 27 -77 18 -163 -24 -104 -50 -212
-132 -361 -273 -67 -63 -131 -118 -143 -121 -29 -7 -191 75 -224 113 -14 17
-28 47 -32 68 -3 20 -12 47 -20 59 -7 12 -23 55 -34 95 -26 96 -87 220 -202
414 -161 272 -172 283 -161 182z m761 -1003 c19 -14 36 -57 58 -147 5 -22 3
-28 -10 -28 -21 0 -113 85 -133 123 -13 26 -13 31 3 48 21 23 52 24 82 4z
m112 -245 c12 -17 68 -127 125 -244 106 -219 150 -286 189 -286 13 0 42 20 71
50 27 28 54 50 61 50 16 0 24 -72 24 -206 0 -138 12 -200 56 -284 60 -115 360
-487 525 -650 177 -176 260 -191 1234 -220 204 -6 380 -13 393 -16 31 -6 28
-32 -5 -45 -30 -12 -146 -9 -448 12 -204 14 -684 5 -832 -15 -64 -8 -114 -21
-135 -33 -18 -11 -59 -37 -92 -56 -32 -20 -88 -46 -123 -58 -36 -12 -102 -46
-147 -77 -174 -118 -235 -159 -311 -202 -138 -80 -224 -184 -225 -273 0 -110
106 -495 183 -660 46 -100 44 -113 -22 -98 -49 11 -100 0 -124 -27 -10 -10
-44 -72 -76 -138 -62 -124 -119 -203 -139 -190 -14 9 12 77 68 181 75 136 102
226 108 355 5 127 -8 215 -59 408 -52 199 -101 278 -202 323 -46 21 -67 24
-177 24 -110 0 -131 -3 -178 -24 -117 -53 -278 -288 -454 -664 -82 -175 -150
-301 -169 -313 -29 -18 -28 19 6 127 35 111 49 219 32 247 -44 69 -557 -168
-771 -357 -108 -96 -118 -98 -137 -28 -16 62 -34 84 -89 112 -52 26 -66 56
-32 70 9 4 61 11 114 15 147 13 430 116 776 281 253 121 341 194 417 351 55
111 64 170 37 231 -45 101 -158 139 -557 186 -409 48 -773 69 -847 48 -15 -4
-55 -30 -89 -57 -35 -28 -68 -49 -73 -47 -6 2 -11 20 -11 39 0 162 -314 117
-795 -113 -91 -43 -169 -79 -173 -79 -4 0 -7 6 -7 14 0 16 92 77 190 126 89
44 228 137 240 161 14 24 9 33 -78 139 -39 47 -68 88 -66 92 3 4 39 -10 82
-32 104 -53 236 -85 449 -109 401 -46 809 -65 1268 -59 390 5 410 8 498 74 97
71 132 169 86 243 -59 98 -192 191 -474 333 -110 55 -215 109 -233 120 -56 34
-24 41 79 17 172 -39 541 -36 790 6 172 30 305 90 394 180 125 125 128 224 15
536 -61 168 -112 225 -230 255 -65 16 -66 43 -1 82 59 37 73 75 47 137 -29 68
-14 89 24 35z m-2337 -412 c13 -13 48 -51 77 -86 93 -110 212 -181 287 -169
19 3 41 3 49 0 8 -3 33 -40 54 -83 22 -43 62 -104 90 -135 53 -61 62 -85 32
-85 -33 0 -280 174 -529 371 l-53 41 -150 -12 c-107 -9 -154 -10 -162 -2 -18
18 -2 28 98 67 72 28 106 48 133 76 20 21 39 38 43 39 4 0 18 -10 31 -22z
m9131 -660 c11 -66 30 -88 74 -88 20 1 48 7 62 15 32 19 60 19 60 1 0 -8 -18
-36 -41 -62 -85 -98 -133 -201 -169 -360 -39 -171 -84 -259 -216 -417 -119
-142 -129 -177 -50 -177 91 0 361 115 696 295 420 227 614 315 919 415 161 53
325 117 403 156 67 34 83 25 28 -16 -70 -51 -287 -152 -484 -225 -99 -37 -208
-79 -242 -95 -127 -57 -194 -121 -194 -183 0 -23 7 -31 43 -47 54 -24 231 -40
452 -40 173 0 449 -15 527 -28 28 -5 43 -13 43 -22 0 -27 -169 -31 -796 -20
l-607 11 -143 -72 c-175 -87 -393 -185 -514 -229 -110 -40 -135 -56 -135 -84
0 -50 64 -95 535 -376 579 -346 1026 -631 1120 -713 l40 -36 -33 -28 c-38 -33
-52 -91 -52 -214 0 -117 -15 -108 -74 43 -66 172 -158 297 -311 426 -142 120
-320 227 -483 291 -88 35 -272 131 -402 209 -160 97 -248 135 -320 136 l-55 1
1 -35 c1 -19 43 -138 94 -265 51 -126 123 -313 161 -415 88 -235 151 -361 239
-478 39 -52 70 -100 70 -108 0 -33 -92 -90 -125 -78 -8 4 -18 18 -21 33 -17
82 -32 122 -87 219 -87 156 -130 260 -213 512 -96 292 -167 439 -259 538 -76
82 -126 111 -242 143 -43 12 -86 26 -96 31 -17 9 -17 11 3 42 39 63 22 141
-49 230 -17 22 -28 43 -24 47 5 5 62 27 128 49 233 80 358 152 460 262 135
145 159 215 210 601 26 197 36 247 53 247 5 0 12 -19 16 -42z m-9790 -567 c20
-22 14 -41 -13 -41 -24 0 -45 25 -37 45 8 21 29 19 50 -4z m5151 9 c204 -12
298 -25 345 -48 36 -17 52 -55 28 -64 -29 -11 -855 24 -921 38 -34 8 -45 30
-26 50 33 32 263 42 574 24z m780 -60 c173 -15 414 -48 525 -71 161 -35 231
-76 198 -116 -17 -21 -113 -14 -358 26 -102 16 -268 41 -369 55 -170 24 -231
41 -231 65 0 14 34 39 60 44 42 7 51 7 175 -3z m-146 -149 c7 -5 10 -14 7 -20
-9 -14 -36 -14 -56 -1 -13 9 -13 11 0 20 18 12 31 12 49 1z m1476 -40 c188
-33 242 -61 215 -111 -31 -57 -92 -54 -505 31 -149 31 -185 56 -132 94 19 14
43 16 162 12 77 -3 194 -15 260 -26z m-2034 -11 c175 -14 250 -26 267 -44 41
-41 -93 -51 -453 -36 -260 10 -404 22 -447 36 -25 8 -22 33 5 38 12 3 31 7 42
9 42 9 457 7 586 -3z m880 -74 c363 -50 529 -84 529 -109 0 -40 -65 -47 -228
-22 -53 8 -216 30 -362 50 -259 34 -363 55 -375 76 -4 5 -4 17 -1 26 6 14 22
15 129 10 67 -3 206 -17 308 -31z m1625 -35 c53 -24 77 -57 63 -84 -10 -17
-18 -19 -66 -13 -74 9 -113 30 -113 61 0 25 33 55 60 55 8 0 34 -9 56 -19z
m514 -56 c239 -28 578 -102 632 -139 69 -46 26 -82 -87 -71 -162 16 -809 126
-852 145 -13 5 -23 16 -23 23 0 17 29 43 55 50 40 10 153 7 275 -8z m-1146
-65 c665 -116 636 -110 636 -145 0 -30 -26 -45 -77 -45 -53 0 -776 128 -838
148 -52 18 -67 40 -45 67 19 23 73 18 324 -25z m-6217 -137 c2 -6 -8 -25 -22
-42 -45 -53 -62 -34 -25 27 20 32 40 38 47 15z m7666 -14 c162 -23 344 -62
384 -81 39 -18 37 -50 -3 -61 -24 -7 -98 5 -327 52 -305 63 -340 72 -352 90
-23 38 38 38 298 0z m-361 -55 c193 -39 558 -121 625 -140 38 -11 40 -54 2
-74 -13 -7 -130 14 -434 80 -229 50 -431 96 -448 104 -70 29 -75 76 -8 76 22
0 140 -21 263 -46z m-4496 -1057 c15 -13 25 -31 23 -41 -4 -16 -7 -15 -39 6
-37 25 -52 58 -26 58 8 0 27 -10 42 -23z m-1627 -124 c6 -21 11 -60 11 -87 0
-48 0 -48 -27 -41 -16 4 -52 9 -80 12 -32 3 -53 10 -53 17 0 30 94 136 122
136 11 0 21 -12 27 -37z m9507 -18 c65 -19 93 -39 77 -56 -23 -23 -193 31
-193 61 0 15 59 12 116 -5z m-10459 -61 c6 -17 -55 -74 -78 -74 -28 0 -23 24
12 60 31 30 59 36 66 14z m606 -191 c9 -8 -22 -43 -39 -43 -20 0 -27 19 -14
35 13 16 42 20 53 8z m9551 -182 c71 -40 92 -82 33 -67 -33 8 -127 78 -127 94
0 17 29 9 94 -27z"/>
<path d="M3854 3371 c-167 -102 -98 -396 116 -495 68 -32 117 -33 160 -3 57
37 75 80 74 172 0 101 -28 175 -90 244 -80 89 -191 124 -260 82z m145 -105
c65 -48 131 -166 131 -234 0 -27 -22 -69 -44 -84 -6 -4 -24 -8 -39 -8 -109 0
-218 184 -177 297 22 58 74 69 129 29z"/>
<path d="M5320 780 c8 -5 20 -10 25 -10 6 0 3 5 -5 10 -8 5 -19 10 -25 10 -5
0 -3 -5 5 -10z"/>
</g>
</svg>
